<?xml version="1.0" encoding="utf-8"?>
<!-- Generator: Adobe Illustrator 26.3.1, SVG Export Plug-In . SVG Version: 6.00 Build 0)  -->
<svg version="1.1" id="Layer_1" xmlns="http://www.w3.org/2000/svg" xmlns:xlink="http://www.w3.org/1999/xlink" x="0px" y="0px"
	 viewBox="0 0 24 24" style="enable-background:new 0 0 24 24;" xml:space="preserve">
<!-- <style type="text/css">
	.st0{fill:none;stroke:#3A3A3A;stroke-width:1.5;stroke-linecap:round;stroke-linejoin:round;}
</style> -->
<path class="st0" d="M8.8,2.7V1 M4.4,4.4L3.2,3.2 M4.4,13.3l-1.2,1.2 M13.3,4.4l1.2-1.2 M2.7,8.8H1 M16.5,16.8L13.7,22
	c-0.3,0.6-0.5,0.9-0.7,1c-0.2,0.1-0.4,0-0.5,0c-0.2-0.1-0.3-0.4-0.5-1.1L8.2,9.3C8,8.8,8,8.5,8,8.3C8.1,8.2,8.2,8.1,8.3,8
	c0.2-0.1,0.4,0,1,0.2l12.5,3.9c0.6,0.2,1,0.3,1.1,0.5c0.1,0.2,0.1,0.3,0,0.5c-0.1,0.2-0.4,0.4-1,0.7l-5.2,2.8
	c-0.1,0-0.1,0.1-0.2,0.1c0,0-0.1,0.1-0.1,0.1C16.5,16.7,16.5,16.7,16.5,16.8z"/>
</svg>
