<?xml version="1.0" encoding="utf-8"?>
<!-- Generator: Adobe Illustrator 26.3.1, SVG Export Plug-In . SVG Version: 6.00 Build 0)  -->
<svg version="1.1" id="Layer_1" xmlns="http://www.w3.org/2000/svg" xmlns:xlink="http://www.w3.org/1999/xlink" x="0px" y="0px"
	 viewBox="0 0 24 24" style="enable-background:new 0 0 24 24;" xml:space="preserve">
<!-- <style type="text/css">
	.st0{fill:none;stroke:#3A3A3A;stroke-width:1.5;stroke-linecap:round;stroke-linejoin:round;}
</style> -->
<path class="st0" d="M16.4,8.7V5.4C16.4,3,14.4,1,12,1C9.6,1,7.6,3,7.6,5.4v3.3 M2.8,10.2l-0.7,7c-0.2,2-0.3,3,0.1,3.8
	c0.3,0.7,0.8,1.2,1.5,1.6C4.3,23,5.3,23,7.3,23h9.3c2,0,3,0,3.8-0.4c0.6-0.4,1.2-0.9,1.5-1.6c0.3-0.8,0.2-1.8,0.1-3.8l-0.7-7
	C21.1,8.5,21,7.7,20.6,7c-0.3-0.6-0.8-1-1.4-1.3c-0.7-0.3-1.5-0.3-3.2-0.3H8c-1.7,0-2.5,0-3.2,0.3C4.2,6,3.7,6.5,3.4,7
	C3,7.7,2.9,8.5,2.8,10.2z"/>
</svg>
