<?xml version="1.0" encoding="utf-8"?>
<!-- Generator: Adobe Illustrator 26.3.1, SVG Export Plug-In . SVG Version: 6.00 Build 0)  -->
<svg version="1.1" id="Layer_1" xmlns="http://www.w3.org/2000/svg" xmlns:xlink="http://www.w3.org/1999/xlink" x="0px" y="0px"
	 viewBox="0 0 24 24" style="enable-background:new 0 0 24 24;" xml:space="preserve">
<!-- <style type="text/css">
	.st0{fill:none;stroke:#3A3A3A;stroke-width:1.5;stroke-linecap:round;stroke-linejoin:round;}
</style> -->
<path class="st0" d="M3.4,8.3v9.8 M8.9,8.3v9.8 M15.1,8.3v9.8 M20.6,8.3v9.8 M1,20.1v1c0,0.7,0,1,0.1,1.3c0.1,0.2,0.3,0.4,0.5,0.5
	C1.9,23,2.3,23,3,23H21c0.7,0,1,0,1.3-0.1c0.2-0.1,0.4-0.3,0.5-0.5C23,22.1,23,21.7,23,21v-1c0-0.7,0-1-0.1-1.3
	c-0.1-0.2-0.3-0.4-0.5-0.5c-0.3-0.1-0.6-0.1-1.3-0.1H3c-0.7,0-1,0-1.3,0.1c-0.2,0.1-0.4,0.3-0.5,0.5C1,19,1,19.4,1,20.1z M11.6,1.1
	l-9,2C2,3.2,1.7,3.3,1.5,3.4C1.3,3.5,1.2,3.7,1.1,3.9C1,4.2,1,4.4,1,5v1.4c0,0.7,0,1,0.1,1.3c0.1,0.2,0.3,0.4,0.5,0.5
	C1.9,8.3,2.3,8.3,3,8.3H21c0.7,0,1,0,1.3-0.1c0.2-0.1,0.4-0.3,0.5-0.5C23,7.4,23,7,23,6.4V5c0-0.6,0-0.8-0.1-1.1
	c-0.1-0.2-0.2-0.4-0.4-0.5c-0.2-0.1-0.5-0.2-1-0.3l-9-2C12.3,1,12.2,1,12.1,1C12,1,12,1,11.9,1C11.8,1,11.7,1,11.6,1.1z"/>
</svg>
