<?xml version="1.0" encoding="utf-8"?>
<!-- Generator: Adobe Illustrator 26.3.1, SVG Export Plug-In . SVG Version: 6.00 Build 0)  -->
<svg version="1.1" id="Layer_1" xmlns="http://www.w3.org/2000/svg" xmlns:xlink="http://www.w3.org/1999/xlink" x="0px" y="0px"
	 viewBox="0 0 24 24" style="enable-background:new 0 0 24 24;" xml:space="preserve">
<!-- <style type="text/css">
	.st0{fill:none;stroke:#3A3A3A;stroke-width:1.5;stroke-linecap:round;stroke-linejoin:round;}
</style> -->
<path class="st0" d="M12,20H5.2c-1.1,0-1.7,0-2.1-0.2c-0.4-0.2-0.7-0.5-0.9-0.9C2,18.5,2,17.9,2,16.8V7.2c0-1.1,0-1.7,0.2-2.1
	c0.2-0.4,0.5-0.7,0.9-0.9C3.5,4,4.1,4,5.2,4h0.4C7.8,4,9,4,9.8,4.4c0.8,0.4,1.4,1,1.7,1.7C12,7,12,8.2,12,10.4 M12,20v-9.6 M12,20
	h6.8c1.1,0,1.7,0,2.1-0.2c0.4-0.2,0.7-0.5,0.9-0.9c0.2-0.4,0.2-1,0.2-2.1V7.2c0-1.1,0-1.7-0.2-2.1c-0.2-0.4-0.5-0.7-0.9-0.9
	C20.5,4,19.9,4,18.8,4h-0.4c-2.2,0-3.4,0-4.2,0.4c-0.8,0.4-1.4,1-1.7,1.7C12,7,12,8.2,12,10.4"/>
</svg>
