<?xml version="1.0" encoding="utf-8"?>
<!-- Generator: Adobe Illustrator 26.3.1, SVG Export Plug-In . SVG Version: 6.00 Build 0)  -->
<svg version="1.1" id="Layer_1" xmlns="http://www.w3.org/2000/svg" xmlns:xlink="http://www.w3.org/1999/xlink" x="0px" y="0px"
	 viewBox="0 0 24 24" style="enable-background:new 0 0 24 24;" xml:space="preserve">
<!-- <style type="text/css">
	.st0{fill:none;stroke:#3A3A3A;stroke-width:1.5;stroke-linecap:round;stroke-linejoin:round;}
</style> -->
<path class="st0" d="M18.7,5.3L5.3,18.7 M7.7,10.2V5.3 M5.3,7.7h4.9 M13.8,16.3h4.9 M6.9,23h10.3c2.1,0,3.1,0,3.9-0.4
	c0.7-0.4,1.3-0.9,1.6-1.6c0.4-0.8,0.4-1.8,0.4-3.9V6.9c0-2.1,0-3.1-0.4-3.9c-0.4-0.7-0.9-1.3-1.6-1.6C20.2,1,19.2,1,17.1,1H6.9
	C4.8,1,3.8,1,3,1.4C2.3,1.8,1.8,2.3,1.4,3C1,3.8,1,4.8,1,6.9v10.3c0,2.1,0,3.1,0.4,3.9c0.4,0.7,0.9,1.3,1.6,1.6
	C3.8,23,4.8,23,6.9,23z"/>
</svg>
