<?xml version="1.0" encoding="utf-8"?>
<!-- Generator: Adobe Illustrator 26.3.1, SVG Export Plug-In . SVG Version: 6.00 Build 0)  -->
<svg version="1.1" id="Layer_1" xmlns="http://www.w3.org/2000/svg" xmlns:xlink="http://www.w3.org/1999/xlink" x="0px" y="0px"
	 viewBox="0 0 24 24" style="enable-background:new 0 0 24 24;" xml:space="preserve">
<!-- <style type="text/css">
	.st0{fill:none;stroke:#3A3A3A;stroke-width:1.5;stroke-linecap:round;stroke-linejoin:round;}
</style> -->
<path class="st0" d="M22.1,22.4H13 M1,23l6.3-2.4c0.4-0.2,0.6-0.2,0.8-0.3c0.2-0.1,0.3-0.2,0.5-0.3c0.2-0.1,0.3-0.3,0.6-0.6
	L22.1,6.5c1.3-1.3,1.3-3.3,0-4.6c-1.3-1.3-3.3-1.3-4.6,0L4.7,14.8c-0.3,0.3-0.5,0.5-0.6,0.6c-0.1,0.2-0.2,0.3-0.3,0.5
	c-0.1,0.2-0.2,0.4-0.3,0.8L1,23z M1,23l2.3-6.1c0.2-0.4,0.3-0.7,0.4-0.8C3.9,16.1,4,16,4.2,16.1c0.2,0,0.3,0.2,0.7,0.5l2.6,2.6
	c0.3,0.3,0.5,0.5,0.5,0.7c0,0.2,0,0.3-0.1,0.4c-0.1,0.1-0.3,0.2-0.8,0.4L1,23z"/>
</svg>
