<?xml version="1.0" encoding="utf-8"?>
<!-- Generator: Adobe Illustrator 26.3.1, SVG Export Plug-In . SVG Version: 6.00 Build 0)  -->
<svg version="1.1" id="Layer_1" xmlns="http://www.w3.org/2000/svg" xmlns:xlink="http://www.w3.org/1999/xlink" x="0px" y="0px"
	 viewBox="0 0 24 24" style="enable-background:new 0 0 24 24;" xml:space="preserve">
<!-- <style type="text/css">
	.st0{fill:none;stroke:#3A3A3A;stroke-width:1.5;stroke-linecap:round;stroke-linejoin:round;}
</style> -->
<path class="st0" d="M13.1,6.5L11.9,4c-0.4-0.7-0.5-1.1-0.8-1.3c-0.2-0.2-0.5-0.4-0.8-0.5C9.9,2.1,9.5,2.1,8.7,2.1H4.5
	c-1.2,0-1.8,0-2.3,0.2c-0.4,0.2-0.8,0.5-1,1C1,3.8,1,4.4,1,5.6v0.9 M1,6.5h16.7c1.8,0,2.8,0,3.5,0.4c0.6,0.3,1.1,0.8,1.4,1.4
	C23,9,23,9.9,23,11.8v4.8c0,1.8,0,2.8-0.4,3.5c-0.3,0.6-0.8,1.1-1.4,1.4c-0.7,0.4-1.6,0.4-3.5,0.4H6.3c-1.8,0-2.8,0-3.5-0.4
	c-0.6-0.3-1.1-0.8-1.4-1.4C1,19.4,1,18.5,1,16.6V6.5z"/>
</svg>
