<?xml version="1.0" encoding="utf-8"?>
<!-- Generator: Adobe Illustrator 26.3.1, SVG Export Plug-In . SVG Version: 6.00 Build 0)  -->
<svg version="1.1" id="Layer_1" xmlns="http://www.w3.org/2000/svg" xmlns:xlink="http://www.w3.org/1999/xlink" x="0px" y="0px"
	 viewBox="0 0 24 24" style="enable-background:new 0 0 24 24;" xml:space="preserve">
<!-- <style type="text/css">
	.st0{fill:none;stroke:#3A3A3A;stroke-width:1.5;stroke-linecap:round;stroke-linejoin:round;}
</style> -->
<path class="st0" d="M23,12.2C23,6,18,1,11.8,1c-5,0-9.3,3.3-10.7,7.8C1,9.1,1,9.3,1,9.5c0,0.1,0,0.3,0.1,0.5
	c0.1,0.2,0.2,0.3,0.5,0.5l12,12c0.2,0.2,0.4,0.4,0.5,0.5c0.1,0.1,0.3,0.1,0.5,0.1c0.2,0,0.3,0,0.6-0.1C19.7,21.4,23,17.2,23,12.2z
	 M2.5,9.6c0.3,0,0.5,0,0.8,0c6.2,0,11.2,5,11.2,11.2c0,0.3,0,0.5,0,0.8c0,0.5,0,0.7-0.2,0.8c-0.1,0.1-0.3,0.2-0.5,0.2
	c-0.2,0-0.4-0.2-0.7-0.6l-11-11c-0.4-0.4-0.5-0.5-0.6-0.7c0-0.2,0.1-0.3,0.2-0.5C1.8,9.6,2,9.6,2.5,9.6z"/>
</svg>
