<?xml version="1.0" encoding="utf-8"?>
<!-- Generator: Adobe Illustrator 26.3.1, SVG Export Plug-In . SVG Version: 6.00 Build 0)  -->
<svg version="1.1" id="Layer_1" xmlns="http://www.w3.org/2000/svg" xmlns:xlink="http://www.w3.org/1999/xlink" x="0px" y="0px"
	 viewBox="0 0 24 24" style="enable-background:new 0 0 24 24;" xml:space="preserve">
<!-- <style type="text/css">
	.st0{fill:none;stroke:#3A3A3A;stroke-width:1.5;stroke-linecap:round;stroke-linejoin:round;}
</style> -->
<path class="st0" d="M14.2,1.3v4.5c0,0.6,0,0.9,0.1,1.2c0.1,0.2,0.3,0.4,0.5,0.5C15,7.6,15.3,7.6,16,7.6h4.5 M16.4,13.1H7.6
	 M16.4,17.5H7.6 M9.8,8.7H7.6 M14.2,1H8.5C6.6,1,5.7,1,5,1.4C4.4,1.7,3.9,2.2,3.6,2.8C3.2,3.5,3.2,4.4,3.2,6.3v11.4
	c0,1.8,0,2.8,0.4,3.5c0.3,0.6,0.8,1.1,1.4,1.4C5.7,23,6.6,23,8.5,23h7c1.8,0,2.8,0,3.5-0.4c0.6-0.3,1.1-0.8,1.4-1.4
	c0.4-0.7,0.4-1.6,0.4-3.5V7.6L14.2,1z"/>
</svg>
