<?xml version="1.0" encoding="utf-8"?>
<!-- Generator: Adobe Illustrator 26.3.1, SVG Export Plug-In . SVG Version: 6.00 Build 0)  -->
<svg version="1.1" id="Layer_1" xmlns="http://www.w3.org/2000/svg" xmlns:xlink="http://www.w3.org/1999/xlink" x="0px" y="0px"
	 viewBox="0 0 24 24" style="enable-background:new 0 0 24 24;" xml:space="preserve">
<!-- <style type="text/css">
	.st0{fill:none;stroke:#3A3A3A;stroke-width:1.5;stroke-linecap:round;stroke-linejoin:round;}
</style> -->
<path class="st0" d="M13.7,8c-0.6,0.4-1.4,0.7-2.2,0.7C9.3,8.7,7.6,7,7.6,4.8S9.3,1,11.5,1c1.4,0,2.6,0.7,3.3,1.8 M5.4,20.9h2.9
	c0.4,0,0.7,0,1.1,0.1l3,0.7c0.7,0.2,1.3,0.2,2,0l3.4-0.7c0.9-0.2,1.7-0.6,2.3-1.2l2.4-2.3c0.7-0.7,0.7-1.7,0-2.4
	c-0.6-0.6-1.6-0.7-2.3-0.2l-2.8,2c-0.4,0.3-0.9,0.4-1.4,0.4h-2.7h1.7c1,0,1.7-0.8,1.7-1.7v-0.3c0-0.8-0.5-1.4-1.3-1.6l-2.6-0.6
	c-0.4-0.1-0.9-0.2-1.3-0.2c-1.1,0-3,0.9-3,0.9l-3.2,1.3 M20.8,5.9c0,2.1-1.7,3.9-3.9,3.9s-3.9-1.7-3.9-3.9s1.7-3.9,3.9-3.9
	S20.8,3.8,20.8,5.9z M1,14.9v6.4c0,0.6,0,0.9,0.1,1.2c0.1,0.2,0.3,0.4,0.5,0.5C1.8,23,2.1,23,2.8,23h0.9c0.6,0,0.9,0,1.2-0.1
	c0.2-0.1,0.4-0.3,0.5-0.5c0.1-0.2,0.1-0.5,0.1-1.2v-6.4c0-0.6,0-0.9-0.1-1.2c-0.1-0.2-0.3-0.4-0.5-0.5c-0.2-0.1-0.5-0.1-1.2-0.1H2.8
	c-0.6,0-0.9,0-1.2,0.1c-0.2,0.1-0.4,0.3-0.5,0.5C1,13.9,1,14.2,1,14.9z"/>
</svg>
